<?xml version="1.0" encoding="UTF-8" standalone="no"?>
<!DOCTYPE svg PUBLIC "-//W3C//DTD SVG 1.1//EN" "http://www.w3.org/Graphics/SVG/1.1/DTD/svg11.dtd">
<svg width="100%" height="100%" viewBox="0 0 26 26" version="1.1" xmlns="http://www.w3.org/2000/svg" xmlns:xlink="http://www.w3.org/1999/xlink" xml:space="preserve" xmlns:serif="http://www.serif.com/" style="fill-rule:evenodd;clip-rule:evenodd;stroke-linejoin:round;stroke-miterlimit:2;">
    <g transform="matrix(1,0,0,1,-986,-649)">
        <g transform="matrix(1,0,0,1.56056,-180.782,-167.462)">
            <g id="XMLID_632_" transform="matrix(1,0,0,0.640796,1159.27,518.798)">
                <path id="XMLID_662_" d="M32.182,29.228C31.938,29.849 31.373,30.724 30.573,31.34C30.111,31.696 29.559,32.037 28.801,32.261C27.993,32.5 26.998,32.581 25.76,32.581L14.437,32.581C13.198,32.581 12.203,32.5 11.395,32.261C10.638,32.037 10.086,31.696 9.624,31.34C8.824,30.724 8.259,29.849 8.014,29.228C7.522,27.976 7.517,26.556 7.517,25.662L7.517,14.338C7.517,13.444 7.522,12.023 8.014,10.772C8.259,10.15 8.823,9.275 9.624,8.659C10.086,8.303 10.638,7.963 11.395,7.739C12.203,7.499 13.198,7.418 14.437,7.418L25.76,7.418C26.998,7.418 27.993,7.499 28.801,7.739C29.559,7.963 30.111,8.303 30.573,8.659C31.373,9.276 31.938,10.15 32.182,10.772C32.675,12.023 32.68,13.444 32.68,14.338L32.68,25.662C32.68,26.556 32.675,27.976 32.182,29.228Z" style="fill:url(#_Linear1);"/>
                <path id="XMLID_660_" d="M32.182,29.228C31.938,29.849 31.373,30.724 30.573,31.34C30.111,31.696 29.559,32.037 28.801,32.261C27.993,32.5 26.998,32.581 25.76,32.581L14.437,32.581C13.198,32.581 12.203,32.5 11.395,32.261C10.638,32.037 10.086,31.696 9.624,31.34C8.824,30.724 8.259,29.849 8.014,29.228C7.522,27.976 7.517,26.556 7.517,25.662L7.517,14.338C7.517,13.444 7.522,12.023 8.014,10.772C8.259,10.15 8.823,9.275 9.624,8.659C10.086,8.303 10.638,7.963 11.395,7.739C12.203,7.499 13.198,7.418 14.437,7.418L25.76,7.418C26.998,7.418 27.993,7.499 28.801,7.739C29.559,7.963 30.111,8.303 30.573,8.659C31.373,9.276 31.938,10.15 32.182,10.772C32.675,12.023 32.68,13.444 32.68,14.338L32.68,25.662C32.68,26.556 32.675,27.976 32.182,29.228Z" style="fill:none;"/>
                <g id="XMLID_648_">
                    <g>
                        <path d="M21.923,21.882C21.546,21.483 20.882,21.228 20.1,21.228C19.317,21.228 18.653,21.483 18.276,21.882C18.079,22.089 17.975,22.302 17.942,22.606C17.878,23.194 17.914,23.7 17.983,24.51C18.048,25.281 18.173,26.309 18.336,27.357C18.451,28.102 18.545,28.504 18.631,28.792C18.77,29.259 19.288,29.668 20.1,29.668C20.911,29.668 21.429,29.259 21.568,28.792C21.654,28.504 21.748,28.102 21.863,27.357C22.026,26.309 22.151,25.281 22.216,24.51C22.285,23.7 22.321,23.194 22.257,22.606C22.224,22.303 22.12,22.089 21.923,21.882ZM18.042,18.334C18.042,19.472 18.964,20.394 20.101,20.394C21.239,20.394 22.161,19.472 22.161,18.334C22.161,17.197 21.239,16.275 20.101,16.275C18.964,16.275 18.042,17.197 18.042,18.334ZM20.076,10.207C15.26,10.221 11.313,14.128 11.254,18.944C11.205,22.846 13.696,26.183 17.173,27.406C17.257,27.436 17.343,27.366 17.33,27.277C17.284,26.974 17.241,26.67 17.202,26.37C17.188,26.265 17.12,26.173 17.023,26.131C14.274,24.93 12.355,22.173 12.386,18.98C12.426,14.79 15.848,11.374 20.038,11.34C24.322,11.305 27.818,14.78 27.818,19.056C27.818,22.217 25.907,24.94 23.18,26.131C23.082,26.174 23.015,26.265 23.001,26.371C22.962,26.67 22.919,26.974 22.873,27.277C22.86,27.365 22.946,27.436 23.03,27.406C26.474,26.194 28.95,22.909 28.95,19.056C28.95,14.168 24.967,10.193 20.076,10.207ZM19.916,14.267C22.646,14.161 24.901,16.351 24.901,19.059C24.901,20.435 24.318,21.678 23.386,22.554C23.306,22.628 23.264,22.733 23.27,22.842C23.289,23.171 23.282,23.491 23.26,23.852C23.254,23.949 23.362,24.01 23.442,23.956C25.005,22.888 26.033,21.091 26.033,19.059C26.033,15.712 23.246,13.004 19.871,13.135C16.735,13.257 14.218,15.843 14.178,18.981C14.152,21.046 15.186,22.874 16.77,23.956C16.849,24.01 16.957,23.949 16.951,23.853C16.929,23.491 16.923,23.171 16.941,22.842C16.947,22.734 16.905,22.628 16.826,22.554C15.864,21.651 15.274,20.358 15.312,18.93C15.378,16.417 17.404,14.364 19.916,14.267Z" style="fill:white;fill-rule:nonzero;"/>
                    </g>
                </g>
            </g>
        </g>
    </g>
    <defs>
        <linearGradient id="_Linear1" x1="0" y1="0" x2="1" y2="0" gradientUnits="userSpaceOnUse" gradientTransform="matrix(1.54079e-15,25.163,-25.163,1.54079e-15,20.0983,7.4183)"><stop offset="0" style="stop-color:rgb(244,82,255);stop-opacity:1"/><stop offset="1" style="stop-color:rgb(131,43,193);stop-opacity:1"/></linearGradient>
    </defs>
</svg>
