<?xml version="1.0" encoding="UTF-8" standalone="no"?>
<!DOCTYPE svg PUBLIC "-//W3C//DTD SVG 1.1//EN" "http://www.w3.org/Graphics/SVG/1.1/DTD/svg11.dtd">
<svg width="100%" height="100%" viewBox="0 0 26 26" version="1.1" xmlns="http://www.w3.org/2000/svg" xmlns:xlink="http://www.w3.org/1999/xlink" xml:space="preserve" xmlns:serif="http://www.serif.com/" style="fill-rule:evenodd;clip-rule:evenodd;stroke-linejoin:round;stroke-miterlimit:2;">
    <g transform="matrix(1,0,0,1,-1021,-649)">
        <g transform="matrix(1,0,0,1.56056,-180.782,-167.462)">
            <g id="Podcast_icon_final" transform="matrix(0.926832,0,0,0.597198,1201.79,523.551)">
                <g id="logo_podcasts_192px">
                    <rect id="Rectangle-path" x="0" y="0" width="27" height="27" style="fill:none;"/>
                    <path id="Shape" d="M2.672,11.109C1.817,11.109 1.125,11.801 1.125,12.656L1.125,14.344C1.125,15.199 1.817,15.891 2.672,15.891C3.527,15.891 4.219,15.199 4.219,14.344L4.219,12.656C4.219,11.801 3.527,11.109 2.672,11.109Z" style="fill:rgb(0,102,217);fill-rule:nonzero;"/>
                    <path id="Shape1" serif:id="Shape" d="M24.328,11.109C23.473,11.109 22.781,11.801 22.781,12.656L22.781,14.344C22.781,15.199 23.473,15.891 24.328,15.891C25.183,15.891 25.875,15.199 25.875,14.344L25.875,12.656C25.875,11.801 25.183,11.109 24.328,11.109Z" style="fill:rgb(66,133,244);fill-rule:nonzero;"/>
                    <path id="Shape2" serif:id="Shape" d="M8.016,16.172C7.161,16.172 6.469,16.864 6.469,17.719L6.469,19.406C6.469,20.261 7.161,20.953 8.016,20.953C8.871,20.953 9.563,20.261 9.563,19.406L9.563,17.719C9.563,16.864 8.871,16.172 8.016,16.172Z" style="fill:rgb(234,67,53);fill-rule:nonzero;"/>
                    <path id="Shape3" serif:id="Shape" d="M8.016,6.047C7.161,6.047 6.469,6.739 6.469,7.594L6.469,13.113L6.47,13.113C6.49,13.951 7.173,14.625 8.016,14.625C8.858,14.625 9.541,13.951 9.561,13.113L9.563,13.113L9.563,7.594C9.563,6.739 8.871,6.047 8.016,6.047Z" style="fill:rgb(234,67,53);fill-rule:nonzero;"/>
                    <path id="Shape4" serif:id="Shape" d="M18.984,6.047C18.129,6.047 17.438,6.739 17.438,7.594L17.438,9.281C17.438,10.136 18.129,10.828 18.984,10.828C19.839,10.828 20.531,10.136 20.531,9.281L20.531,7.594C20.531,6.739 19.839,6.047 18.984,6.047Z" style="fill:rgb(52,168,83);fill-rule:nonzero;"/>
                    <path id="Shape5" serif:id="Shape" d="M13.5,1.125C12.645,1.125 11.953,1.817 11.953,2.672L11.953,4.359C11.953,5.214 12.645,5.906 13.5,5.906C14.355,5.906 15.047,5.214 15.047,4.359L15.047,2.672C15.047,1.817 14.355,1.125 13.5,1.125Z" style="fill:rgb(250,185,8);fill-rule:nonzero;"/>
                    <path id="Shape6" serif:id="Shape" d="M13.5,21.094C12.645,21.094 11.953,21.786 11.953,22.641L11.953,24.328C11.953,25.183 12.645,25.875 13.5,25.875C14.355,25.875 15.047,25.183 15.047,24.328L15.047,22.641C15.047,21.786 14.355,21.094 13.5,21.094Z" style="fill:rgb(250,185,8);fill-rule:nonzero;"/>
                    <path id="Shape7" serif:id="Shape" d="M18.984,12.375C18.129,12.375 17.438,13.067 17.438,13.922L17.438,19.406C17.438,20.261 18.129,20.953 18.984,20.953C19.839,20.953 20.531,20.261 20.531,19.406L20.531,13.922C20.531,13.067 19.839,12.375 18.984,12.375Z" style="fill:rgb(52,168,83);fill-rule:nonzero;"/>
                    <path id="Shape8" serif:id="Shape" d="M15.047,9C15.047,8.145 14.355,7.453 13.5,7.453C12.645,7.453 11.953,8.145 11.953,9L11.953,18C11.953,18.855 12.645,19.547 13.5,19.547C14.355,19.547 15.047,18.855 15.047,18L15.047,9Z" style="fill:rgb(250,185,8);fill-rule:nonzero;"/>
                </g>
            </g>
        </g>
    </g>
</svg>
