<?xml version="1.0" encoding="UTF-8" standalone="no"?>
<!DOCTYPE svg PUBLIC "-//W3C//DTD SVG 1.1//EN" "http://www.w3.org/Graphics/SVG/1.1/DTD/svg11.dtd">
<svg width="100%" height="100%" viewBox="0 0 26 26" version="1.1" xmlns="http://www.w3.org/2000/svg" xmlns:xlink="http://www.w3.org/1999/xlink" xml:space="preserve" xmlns:serif="http://www.serif.com/" style="fill-rule:evenodd;clip-rule:evenodd;stroke-linejoin:round;stroke-miterlimit:2;">
    <g transform="matrix(1,0,0,1,-951,-649)">
        <g transform="matrix(1,0,0,1.56056,-180.782,-167.462)">
            <g id="Combined-Shape" transform="matrix(0.535383,0,0,0.343071,1056.18,517.891)">
                <path d="M178.695,37.333C179.731,37.953 181.074,37.609 181.69,36.565C182.306,35.522 181.965,34.173 180.926,33.553C172.254,28.376 158.53,27.89 150.275,30.409C149.12,30.762 148.468,31.989 148.818,33.151C149.168,34.312 150.389,34.968 151.544,34.616C158.736,32.421 171.162,32.835 178.695,37.333ZM178.448,43.996C178.975,43.136 178.705,42.008 177.849,41.477C170.635,37.02 160.084,35.765 151.595,38.355C150.634,38.65 150.09,39.671 150.38,40.64C150.673,41.607 151.691,42.154 152.654,41.861C160.085,39.593 169.662,40.718 175.942,44.6C176.799,45.129 177.92,44.859 178.448,43.996ZM175.589,50.395C176.009,49.705 175.792,48.803 175.106,48.381C168.946,44.596 161.309,43.715 152.406,45.762C151.621,45.942 151.131,46.727 151.311,47.515C151.49,48.303 152.271,48.797 153.055,48.617C161.19,46.748 168.098,47.51 173.586,50.883C174.272,51.305 175.169,51.088 175.589,50.395ZM164.871,16.5C177.778,16.5 188.241,27.021 188.241,40C188.241,52.979 177.778,63.5 164.871,63.5C151.964,63.5 141.5,52.979 141.5,40C141.5,27.021 151.964,16.5 164.871,16.5Z" style="fill:rgb(30,215,96);"/>
            </g>
        </g>
    </g>
</svg>
